<?xml version="1.0" standalone="no"?>
<!DOCTYPE svg PUBLIC "-//W3C//DTD SVG 20010904//EN"
 "http://www.w3.org/TR/2001/REC-SVG-20010904/DTD/svg10.dtd">
<svg version="1.0" xmlns="http://www.w3.org/2000/svg"
 width="128.000000pt" height="128.000000pt" viewBox="0 0 128.000000 128.000000"
 preserveAspectRatio="xMidYMid meet">
<metadata>
Created by potrace 1.14, written by Peter Selinger 2001-2017
</metadata>
<g transform="translate(0.000000,128.000000) scale(0.100000,-0.100000)"
fill="#000000" stroke="none">
<path d="M918 1081 c-6 -10 -18 -17 -25 -14 -8 3 -20 -11 -33 -38 -11 -24 -20
-36 -20 -27 0 14 -5 16 -22 9 -32 -12 -55 -48 -72 -111 -8 -30 -15 -48 -16
-40 0 11 -6 8 -20 -8 -23 -28 -50 -112 -50 -158 0 -27 -4 -32 -27 -37 l-28 -5
22 15 c31 21 29 28 -14 78 -53 60 -100 142 -131 226 -15 40 -33 74 -41 77 -8
3 -11 0 -7 -6 3 -6 7 -44 8 -84 0 -40 6 -84 13 -98 7 -14 10 -41 8 -61 -5 -39
12 -83 45 -113 17 -14 19 -22 10 -36 -20 -31 -3 -50 46 -50 26 0 46 5 49 13 3
7 6 5 6 -5 1 -15 -8 -18 -53 -18 -38 0 -61 -6 -78 -19 -22 -18 -45 -20 -220
-23 -176 -3 -222 -8 -207 -23 3 -2 30 -9 60 -14 l54 -9 -45 -1 c-25 -1 -58 -8
-75 -15 l-30 -13 25 -13 c13 -7 56 -15 94 -18 66 -5 68 -5 37 -16 -18 -6 -33
-15 -32 -21 1 -22 46 -14 176 31 95 32 140 43 147 36 7 -7 4 -30 -10 -77 l-20
-66 29 -15 c26 -13 29 -13 29 1 0 9 12 39 27 68 15 29 31 61 34 72 7 19 7 19
8 -2 1 -16 7 -23 21 -23 17 0 19 3 11 19 -13 24 -5 31 36 31 27 0 33 -4 33
-20 0 -13 6 -20 15 -18 11 2 25 -18 44 -63 30 -70 75 -142 110 -174 l22 -19
35 38 35 38 -35 38 c-40 44 -59 79 -74 132 -12 45 -14 45 173 42 110 -2 145 1
164 13 13 8 36 13 52 11 20 -3 29 0 29 9 0 27 -21 53 -43 53 -12 1 -33 7 -47
15 -16 9 -54 14 -102 15 -45 0 -78 4 -78 10 0 6 -20 10 -45 10 -25 0 -45 -4
-45 -10 0 -5 -16 -10 -36 -10 -32 0 -36 -2 -31 -21 4 -17 3 -19 -6 -10 -6 6
-13 39 -15 74 -4 56 -1 66 21 92 58 70 77 107 77 152 0 25 11 72 24 106 33 83
41 117 27 117 -6 0 -16 -9 -23 -19z m-191 -273 c-3 -8 -6 -5 -6 6 -1 11 2 17
5 13 3 -3 4 -12 1 -19z"/>
<path d="M612 453 c2 -10 12 -18 23 -18 11 0 21 8 23 18 3 13 -3 17 -23 17
-20 0 -26 -4 -23 -17z"/>
</g>
</svg>
